<mxfile host="Electron" agent="Mozilla/5.0 (Windows NT 10.0; Win64; x64) AppleWebKit/537.36 (KHTML, like Gecko) draw.io/24.7.17 Chrome/128.0.6613.36 Electron/32.0.1 Safari/537.36" version="24.7.17">
  <diagram id="THzFIdJxL9Lbwa_fDxVR" name="Side-1">
    <mxGraphModel dx="7987" dy="3207" grid="1" gridSize="10" guides="1" tooltips="1" connect="1" arrows="1" fold="1" page="0" pageScale="1" pageWidth="827" pageHeight="1169" background="none" math="0" shadow="0">
      <root>
        <mxCell id="0" />
        <mxCell id="1" parent="0" />
        <mxCell id="node7" value="&lt;p style=&quot;margin:0px;margin-top:4px;text-align:center;&quot;&gt;&lt;b&gt;Project&lt;/b&gt;&lt;/p&gt;&lt;hr size=&quot;1&quot;/&gt;&lt;p style=&quot;margin:0 0 0 4px;line-height:1.6;&quot;&gt;+ setCreatedBy(int): void&lt;br/&gt;+ getDifferenceInHours(): int&lt;br/&gt;+ getTitle(): String&lt;br/&gt;+ getWorkHours(): int&lt;br/&gt;+ setWorkHours(int): void&lt;br/&gt;+ setDeadline(LocalDate): void&lt;br/&gt;+ setEstDeadline(LocalDate): void&lt;br/&gt;+ getId(): int&lt;br/&gt;+ setDuration(int): void&lt;br/&gt;+ isOverWorked(): boolean&lt;br/&gt;+ setId(int): void&lt;br/&gt;+ setDescription(String): void&lt;br/&gt;+ getDescription(): String&lt;br/&gt;+ setChecked(boolean): void&lt;br/&gt;+ getCreatedBy(): int&lt;br/&gt;+ getChecked(): boolean&lt;br/&gt;+ setTitle(String): void&lt;br/&gt;+ setProjectManager(String): void&lt;br/&gt;+ getDuration(): int&lt;br/&gt;+ getEstDeadline(): LocalDate&lt;br/&gt;+ getProjectManager(): String&lt;br/&gt;+ getDeadline(): LocalDate&lt;/p&gt;" style="verticalAlign=top;align=left;overflow=fill;fontSize=14;fontFamily=Helvetica;html=1;rounded=0;shadow=0;comic=0;labelBackgroundColor=none;strokeWidth=1;" parent="1" vertex="1">
          <mxGeometry x="-1040" y="1607" width="244" height="567" as="geometry" />
        </mxCell>
        <mxCell id="node3" value="&lt;p style=&quot;margin:0px;margin-top:4px;text-align:center;&quot;&gt;&lt;b&gt;ProjectController&lt;/b&gt;&lt;/p&gt;&lt;hr size=&quot;1&quot;/&gt;&lt;p style=&quot;margin:0 0 0 4px;line-height:1.6;&quot;&gt;+ showHomePage(HttpSession): String&lt;br/&gt;+ showAddForm(Model, HttpSession): String&lt;br/&gt;+ assignToProject(int, int): String&lt;br/&gt;+ toggleChecked(int): String&lt;br/&gt;- isLoggedIn(HttpSession): boolean&lt;br/&gt;+ editProject(int, Project): String&lt;br/&gt;+ getAllWorkers(int, Model, HttpSession): String&lt;br/&gt;+ addProject(Project): String&lt;br/&gt;+ listProjects(Model, HttpSession, SessionStatus): String&lt;br/&gt;+ deleteProject(int): String&lt;br/&gt;+ showEditForm(int, Model, HttpSession): String&lt;br/&gt;+ showAdminPage(HttpSession): String&lt;br/&gt;+ unassignFromProject(int, int): String&lt;/p&gt;" style="verticalAlign=top;align=left;overflow=fill;fontSize=14;fontFamily=Helvetica;html=1;rounded=0;shadow=0;comic=0;labelBackgroundColor=none;strokeWidth=1;" parent="1" vertex="1">
          <mxGeometry x="-510" y="2216" width="380" height="351" as="geometry" />
        </mxCell>
        <mxCell id="node6" value="&lt;p style=&quot;margin:0px;margin-top:4px;text-align:center;&quot;&gt;&lt;b&gt;ProjectRepository&lt;/b&gt;&lt;/p&gt;&lt;hr size=&quot;1&quot;/&gt;&lt;p style=&quot;margin:0 0 0 4px;line-height:1.6;&quot;&gt;- mapProjects(): RowMapper&amp;lt;Project&amp;gt;&lt;br/&gt;+ findAll(): List&amp;lt;Project&amp;gt;&lt;br/&gt;+ updateWorkHours(int, int): void&lt;br/&gt;+ getSharedProjectsByUserId(int): List&amp;lt;Project&amp;gt;&lt;br/&gt;+ unassignFromProject(int, int): void&lt;br/&gt;+ updateChecked(int, boolean): void&lt;br/&gt;+ getAllProjectsByUserId(int): List&amp;lt;Project&amp;gt;&lt;br/&gt;+ save(Project): void&lt;br/&gt;+ findById(int): Project&lt;br/&gt;+ update(Project, int): void&lt;br/&gt;+ deleteById(int): void&lt;br/&gt;+ getWorkHours(int): int&lt;br/&gt;+ assignToProject(int, int): void&lt;br/&gt;+ updateEstimatedDeadline(Project): void&lt;/p&gt;" style="verticalAlign=top;align=left;overflow=fill;fontSize=14;fontFamily=Helvetica;html=1;rounded=0;shadow=0;comic=0;labelBackgroundColor=none;strokeWidth=1;" parent="1" vertex="1">
          <mxGeometry x="161" y="1839" width="332" height="375" as="geometry" />
        </mxCell>
        <mxCell id="node1" value="&lt;p style=&quot;margin:0px;margin-top:4px;text-align:center;&quot;&gt;&lt;b&gt;ProjectService&lt;/b&gt;&lt;/p&gt;&lt;hr size=&quot;1&quot;/&gt;&lt;p style=&quot;margin:0 0 0 4px;line-height:1.6;&quot;&gt;+ toggleCheckedAndCascade(int): void&lt;br/&gt;+ updateEstimatedDeadline(Project): void&lt;br/&gt;+ getProjectById(int): Project&lt;br/&gt;+ updateProject(Project, int): void&lt;br/&gt;+ assignToProject(int, int): void&lt;br/&gt;+ getAllProjects(): List&amp;lt;Project&amp;gt;&lt;br/&gt;+ getSharedProjectsByUserId(int): List&amp;lt;Project&amp;gt;&lt;br/&gt;+ deleteProject(int): void&lt;br/&gt;+ addProject(Project): void&lt;br/&gt;+ getAllProjectsByUserId(int): List&amp;lt;Project&amp;gt;&lt;br/&gt;+ getProjectManagerId(String): int&lt;br/&gt;+ unassignFromProject(int, int): void&lt;/p&gt;" style="verticalAlign=top;align=left;overflow=fill;fontSize=14;fontFamily=Helvetica;html=1;rounded=0;shadow=0;comic=0;labelBackgroundColor=none;strokeWidth=1;" parent="1" vertex="1">
          <mxGeometry x="161" y="2682" width="332" height="327" as="geometry" />
        </mxCell>
        <mxCell id="node2" value="&lt;p style=&quot;margin:0px;margin-top:4px;text-align:center;&quot;&gt;&lt;i&gt;&amp;lt;&amp;lt;enumeration&amp;gt;&amp;gt;&lt;/i&gt;&lt;br/&gt;&lt;b&gt;Role&lt;/b&gt;&lt;/p&gt;&lt;hr size=&quot;1&quot;/&gt;&lt;p style=&quot;margin:0 0 0 4px;line-height:1.6;&quot;&gt;+ values(): Role[]&lt;br/&gt;+ valueOf(String): Role&lt;/p&gt;" style="verticalAlign=top;align=left;overflow=fill;fontSize=14;fontFamily=Helvetica;html=1;rounded=0;shadow=0;comic=0;labelBackgroundColor=none;strokeWidth=1;" parent="1" vertex="1">
          <mxGeometry x="1198" y="733" width="173" height="109" as="geometry" />
        </mxCell>
        <mxCell id="node5" value="&lt;p style=&quot;margin:0px;margin-top:4px;text-align:center;&quot;&gt;&lt;b&gt;Task&lt;/b&gt;&lt;/p&gt;&lt;hr size=&quot;1&quot;/&gt;&lt;p style=&quot;margin:0 0 0 4px;line-height:1.6;&quot;&gt;+ setId(int): void&lt;br/&gt;+ setDescription(String): void&lt;br/&gt;+ setDeadline(LocalDate): void&lt;br/&gt;+ getChecked(): boolean&lt;br/&gt;+ getStatus(): String&lt;br/&gt;+ setStatus(String): void&lt;br/&gt;+ getDescription(): String&lt;br/&gt;+ isOverWorked(): boolean&lt;br/&gt;+ getWorkHours(): int&lt;br/&gt;+ getDeadline(): LocalDate&lt;br/&gt;+ setSubprojectId(int): void&lt;br/&gt;+ getEstDeadline(): LocalDate&lt;br/&gt;+ setDuration(int): void&lt;br/&gt;+ getDifferenceInHours(): int&lt;br/&gt;+ setEstDeadline(LocalDate): void&lt;br/&gt;+ getPriority(): String&lt;br/&gt;+ getSubprojectId(): int&lt;br/&gt;+ setChecked(boolean): void&lt;br/&gt;+ setTitle(String): void&lt;br/&gt;+ getDuration(): int&lt;br/&gt;+ setWorkHours(int): void&lt;br/&gt;+ getTitle(): String&lt;br/&gt;+ getId(): int&lt;br/&gt;+ setPriority(String): void&lt;/p&gt;" style="verticalAlign=top;align=left;overflow=fill;fontSize=14;fontFamily=Helvetica;html=1;rounded=0;shadow=0;comic=0;labelBackgroundColor=none;strokeWidth=1;" parent="1" vertex="1">
          <mxGeometry x="739" y="870" width="244" height="615" as="geometry" />
        </mxCell>
        <mxCell id="node0" value="&lt;p style=&quot;margin:0px;margin-top:4px;text-align:center;&quot;&gt;&lt;b&gt;TaskUser&lt;/b&gt;&lt;/p&gt;&lt;hr size=&quot;1&quot;/&gt;&lt;p style=&quot;margin:0 0 0 4px;line-height:1.6;&quot;&gt;+ getTask(): Task&lt;br/&gt;+ setTask(Task): void&lt;br/&gt;+ setAssigned(List&amp;lt;User&amp;gt;): void&lt;br/&gt;+ getUnassigned(): List&amp;lt;User&amp;gt;&lt;br/&gt;+ getAssigned(): List&amp;lt;User&amp;gt;&lt;br/&gt;+ setUnassigned(List&amp;lt;User&amp;gt;): void&lt;/p&gt;" style="verticalAlign=top;align=left;overflow=fill;fontSize=14;fontFamily=Helvetica;html=1;rounded=0;shadow=0;comic=0;labelBackgroundColor=none;strokeWidth=1;" parent="1" vertex="1">
          <mxGeometry x="1430" y="2110" width="249" height="183" as="geometry" />
        </mxCell>
        <mxCell id="node4" value="&lt;p style=&quot;margin:0px;margin-top:4px;text-align:center;&quot;&gt;&lt;b&gt;User&lt;/b&gt;&lt;/p&gt;&lt;hr size=&quot;1&quot;/&gt;&lt;p style=&quot;margin:0 0 0 4px;line-height:1.6;&quot;&gt;+ getEmail(): String&lt;br/&gt;+ toString(): String&lt;br/&gt;+ setEmail(String): void&lt;br/&gt;+ setPassword(String): void&lt;br/&gt;+ setRole(Role): void&lt;br/&gt;+ setUsername(String): void&lt;br/&gt;+ getUsername(): String&lt;br/&gt;+ getRole(): Role&lt;br/&gt;+ setId(int): void&lt;br/&gt;+ getPassword(): String&lt;br/&gt;+ getId(): int&lt;/p&gt;" style="verticalAlign=top;align=left;overflow=fill;fontSize=14;fontFamily=Helvetica;html=1;rounded=0;shadow=0;comic=0;labelBackgroundColor=none;strokeWidth=1;" parent="1" vertex="1">
          <mxGeometry x="1479" y="1416" width="206" height="303" as="geometry" />
        </mxCell>
        <mxCell id="edge0" value="" style="html=1;rounded=1;edgeStyle=orthogonalEdgeStyle;dashed=1;startArrow=none;endArrow=openThin;endSize=12;strokeColor=#595959;exitX=0.250;exitY=0.000;exitDx=0;exitDy=0;entryX=1.000;entryY=0.352;entryDx=0;entryDy=0;" parent="1" source="node3" target="node7" edge="1">
          <mxGeometry width="50" height="50" relative="1" as="geometry">
            <Array as="points">
              <mxPoint x="-415" y="1806" />
            </Array>
          </mxGeometry>
        </mxCell>
        <mxCell id="label2" value="«create»" style="edgeLabel;resizable=0;html=1;align=left;verticalAlign=top;strokeColor=default;" parent="edge0" vertex="1" connectable="0">
          <mxGeometry x="-440" y="2191" as="geometry" />
        </mxCell>
        <mxCell id="edge2" value="" style="html=1;rounded=1;edgeStyle=orthogonalEdgeStyle;dashed=0;startArrow=diamondThinstartSize=12;endArrow=openThin;endSize=12;strokeColor=#595959;exitX=0.500;exitY=1.000;exitDx=0;exitDy=0;entryX=0.000;entryY=0.500;entryDx=0;entryDy=0;" parent="1" source="node3" target="node1" edge="1">
          <mxGeometry width="50" height="50" relative="1" as="geometry">
            <Array as="points">
              <mxPoint x="-320" y="2845" />
            </Array>
          </mxGeometry>
        </mxCell>
        <mxCell id="label12" value="1" style="edgeLabel;resizable=0;html=1;align=left;verticalAlign=top;strokeColor=default;" parent="edge2" vertex="1" connectable="0">
          <mxGeometry x="-325" y="2572" as="geometry" />
        </mxCell>
        <mxCell id="label16" value="1" style="edgeLabel;resizable=0;html=1;align=left;verticalAlign=top;strokeColor=default;" parent="edge2" vertex="1" connectable="0">
          <mxGeometry x="-325" y="2572" as="geometry" />
        </mxCell>
        <mxCell id="label17" value="projectService" style="edgeLabel;resizable=0;html=1;align=left;verticalAlign=top;strokeColor=default;" parent="edge2" vertex="1" connectable="0">
          <mxGeometry x="-360" y="2572" as="geometry" />
        </mxCell>
        <mxCell id="edge5" value="" style="html=1;rounded=1;edgeStyle=orthogonalEdgeStyle;dashed=1;startArrow=none;endArrow=openThin;endSize=12;strokeColor=#595959;exitX=0.500;exitY=0.000;exitDx=0;exitDy=0;entryX=1.000;entryY=0.352;entryDx=0;entryDy=0;" parent="1" source="node6" target="node7" edge="1">
          <mxGeometry width="50" height="50" relative="1" as="geometry">
            <Array as="points">
              <mxPoint x="327" y="1806" />
            </Array>
          </mxGeometry>
        </mxCell>
        <mxCell id="label32" value="«create»" style="edgeLabel;resizable=0;html=1;align=left;verticalAlign=top;strokeColor=default;" parent="edge5" vertex="1" connectable="0">
          <mxGeometry x="301" y="1814" as="geometry" />
        </mxCell>
        <mxCell id="edge4" value="" style="html=1;rounded=1;edgeStyle=orthogonalEdgeStyle;dashed=0;startArrow=diamondThinstartSize=12;endArrow=openThin;endSize=12;strokeColor=#595959;exitX=0.500;exitY=0.000;exitDx=0;exitDy=0;entryX=0.500;entryY=1.000;entryDx=0;entryDy=0;" parent="1" source="node1" target="node6" edge="1">
          <mxGeometry width="50" height="50" relative="1" as="geometry">
            <Array as="points" />
          </mxGeometry>
        </mxCell>
        <mxCell id="label24" value="1" style="edgeLabel;resizable=0;html=1;align=left;verticalAlign=top;strokeColor=default;" parent="edge4" vertex="1" connectable="0">
          <mxGeometry x="321" y="2657" as="geometry" />
        </mxCell>
        <mxCell id="label28" value="1" style="edgeLabel;resizable=0;html=1;align=left;verticalAlign=top;strokeColor=default;" parent="edge4" vertex="1" connectable="0">
          <mxGeometry x="321" y="2657" as="geometry" />
        </mxCell>
        <mxCell id="label29" value="projectRepository" style="edgeLabel;resizable=0;html=1;align=left;verticalAlign=top;strokeColor=default;" parent="edge4" vertex="1" connectable="0">
          <mxGeometry x="277" y="2657" as="geometry" />
        </mxCell>
        <mxCell id="edge6" value="" style="html=1;rounded=1;edgeStyle=orthogonalEdgeStyle;dashed=0;startArrow=diamondThinstartSize=12;endArrow=openThin;endSize=12;strokeColor=#595959;exitX=0.000;exitY=0.523;exitDx=0;exitDy=0;entryX=0.500;entryY=1.000;entryDx=0;entryDy=0;" parent="1" source="node0" target="node5" edge="1">
          <mxGeometry width="50" height="50" relative="1" as="geometry">
            <Array as="points">
              <mxPoint x="861" y="2206" />
            </Array>
          </mxGeometry>
        </mxCell>
        <mxCell id="label36" value="1" style="edgeLabel;resizable=0;html=1;align=left;verticalAlign=top;strokeColor=default;" parent="edge6" vertex="1" connectable="0">
          <mxGeometry x="1414" y="2196" as="geometry" />
        </mxCell>
        <mxCell id="label40" value="1" style="edgeLabel;resizable=0;html=1;align=left;verticalAlign=top;strokeColor=default;" parent="edge6" vertex="1" connectable="0">
          <mxGeometry x="1414" y="2196" as="geometry" />
        </mxCell>
        <mxCell id="label41" value="task" style="edgeLabel;resizable=0;html=1;align=left;verticalAlign=top;strokeColor=default;" parent="edge6" vertex="1" connectable="0">
          <mxGeometry x="1398" y="2196" as="geometry" />
        </mxCell>
        <mxCell id="edge3" value="" style="html=1;rounded=1;edgeStyle=orthogonalEdgeStyle;dashed=0;startArrow=diamondThinstartSize=12;endArrow=openThin;endSize=12;strokeColor=#595959;exitX=0.610;exitY=0.000;exitDx=0;exitDy=0;entryX=0.500;entryY=1.000;entryDx=0;entryDy=0;" parent="1" source="node0" target="node4" edge="1">
          <mxGeometry width="50" height="50" relative="1" as="geometry">
            <Array as="points" />
          </mxGeometry>
        </mxCell>
        <mxCell id="label18" value="1" style="edgeLabel;resizable=0;html=1;align=left;verticalAlign=top;strokeColor=default;" parent="edge3" vertex="1" connectable="0">
          <mxGeometry x="1577" y="2085" as="geometry" />
        </mxCell>
        <mxCell id="label22" value="*" style="edgeLabel;resizable=0;html=1;align=left;verticalAlign=top;strokeColor=default;" parent="edge3" vertex="1" connectable="0">
          <mxGeometry x="1578" y="2085" as="geometry" />
        </mxCell>
        <mxCell id="label23" value="unassigned" style="edgeLabel;resizable=0;html=1;align=left;verticalAlign=top;strokeColor=default;" parent="edge3" vertex="1" connectable="0">
          <mxGeometry x="1547" y="2085" as="geometry" />
        </mxCell>
        <mxCell id="edge1" value="" style="html=1;rounded=1;edgeStyle=orthogonalEdgeStyle;dashed=0;startArrow=diamondThinstartSize=12;endArrow=openThin;endSize=12;strokeColor=#595959;exitX=0.500;exitY=0.000;exitDx=0;exitDy=0;entryX=0.500;entryY=1.001;entryDx=0;entryDy=0;" parent="1" source="node4" target="node2" edge="1">
          <mxGeometry width="50" height="50" relative="1" as="geometry">
            <Array as="points">
              <mxPoint x="1582" y="1186" />
              <mxPoint x="1284" y="1186" />
            </Array>
          </mxGeometry>
        </mxCell>
        <mxCell id="label6" value="1" style="edgeLabel;resizable=0;html=1;align=left;verticalAlign=top;strokeColor=default;" parent="edge1" vertex="1" connectable="0">
          <mxGeometry x="1577" y="1391" as="geometry" />
        </mxCell>
        <mxCell id="label10" value="1" style="edgeLabel;resizable=0;html=1;align=left;verticalAlign=top;strokeColor=default;" parent="edge1" vertex="1" connectable="0">
          <mxGeometry x="1577" y="1391" as="geometry" />
        </mxCell>
        <mxCell id="label11" value="role" style="edgeLabel;resizable=0;html=1;align=left;verticalAlign=top;strokeColor=default;" parent="edge1" vertex="1" connectable="0">
          <mxGeometry x="1570" y="1391" as="geometry" />
        </mxCell>
      </root>
    </mxGraphModel>
  </diagram>
</mxfile>
